<svg xmlns="http://www.w3.org/2000/svg" width="400" height="400" id="magnifying-glass"><path fill="#2A94F4" d="M244.991 256.209a10.663 10.663 0 0 1-7.61 3.148 10.664 10.664 0 0 1-7.612-3.146l-33.622-33.621c-4.199-4.199-4.199-11.023 0-15.224a10.666 10.666 0 0 1 7.612-3.149 10.676 10.676 0 0 1 7.612 3.149l33.62 33.62c4.199 4.2 4.198 11.025 0 15.223z"></path><path fill="#0B4870" d="M347.812 358.521c-4.915 4.915-11.333 7.37-17.749 7.343-6.422.027-12.84-2.428-17.748-7.338l-78.391-78.391c-9.794-9.793-9.793-25.705.001-35.499 4.911-4.909 11.329-7.366 17.747-7.337 6.422-.027 12.837 2.428 17.748 7.339l78.392 78.391c9.792 9.79 9.787 25.705 0 35.492z"></path><circle cx="152.643" cy="141.933" r="107.797" fill="#D3D3D3"></circle><circle cx="152.643" cy="141.932" r="79.664" fill="#F7F7F7"></circle><circle cx="152.643" cy="141.932" r="74.334" fill="#CCE9FF"></circle></svg>