<svg xmlns="http://www.w3.org/2000/svg" viewBox="0 0 64 64" id="idea"><path fill="#ffb600" d="M43 29.64c0 10.63-6.11 9.45-6.11 15.36h-9.78c0-5.91-6.11-4.73-6.11-15.36S32 19 32 19s11 0 11 10.64Z"></path><path fill="#9e6828" d="M27 45h10v3H27z"></path><path fill="#ffb600" d="M27 48h10v3H27z"></path><path fill="#9e6828" d="M34 54h-4l-3-3h10l-3 3zM30.36 37h-.16a1 1 0 0 1-.78-.65l-1.54-4.23-1.07 1.48-1.62-1.18 2.18-3a1 1 0 0 1 .95-.4 1 1 0 0 1 .8.65L30.7 34l2.16-2.64a1 1 0 0 1 .71-.37 1 1 0 0 1 .74.26L36 32.81l1.58-.72.84 1.82-2.18 1a1 1 0 0 1-1.1-.17l-1.4-1.29-2.6 3.18a1 1 0 0 1-.78.37ZM31 39h2v6h-2z"></path><path fill="#f9d178" d="M10 29h5v2h-5zM49 29h5v2h-5zM15.295 45.29l3.536-3.535 1.414 1.414-3.536 3.536zM43.756 16.832l3.535-3.535 1.414 1.414-3.535 3.535zM15.292 14.705l1.414-1.414 3.535 3.535-1.414 1.415zM43.75 43.175l1.413-1.414 3.536 3.535-1.414 1.415zM31 8h2v5h-2z"></path></svg>