<svg xmlns="http://www.w3.org/2000/svg" viewBox="0 0 64 64" id="social-engagement"><path fill="#2a3a3e" d="M21.05 48c-1.2 1.81-3.19 2.93-5.35 2.93-2.16 0-4.15-1.12-5.34-2.93-5.03 2.69-8.42 8.89-8.75 16H29.8c-.33-7.11-3.72-13.31-8.75-16z"></path><circle cx="15.71" cy="40.65" r="5.33" fill="#2a3a3e"></circle><path fill="#2a3a3e" d="M10.82 21.44h4.7c.58 0 1.06.43 1.13 1.02l.37 3.14 5.79-3.97c.18-.13.41-.19.64-.19h18.79c.83 0 1.52-.69 1.52-1.53V1.53c0-.85-.69-1.53-1.52-1.53H10.82c-.84 0-1.53.69-1.53 1.53v18.38c0 .84.69 1.53 1.53 1.53zm5.27-16.96h20.87c.64 0 1.14.51 1.14 1.14 0 .63-.5 1.14-1.14 1.14H16.09a1.14 1.14 0 1 1 0-2.28zm0 5.68h20.87c.64 0 1.14.51 1.14 1.14 0 .63-.5 1.14-1.14 1.14H16.09a1.14 1.14 0 1 1 0-2.28zm0 5.68h20.87c.64 0 1.14.51 1.14 1.14 0 .63-.5 1.14-1.14 1.14H16.09a1.14 1.14 0 1 1 0-2.28z"></path><path fill="#2a3a3e" d="M60.87 18.13H46.05v1.78c0 2.1-1.7 3.82-3.81 3.82H28.19v13.43c0 .85.69 1.53 1.53 1.53h18.89c.26 0 .5.08.71.24l5.62 4.34.47-3.59c.08-.57.56-.99 1.13-.99h4.32c.83 0 1.52-.69 1.52-1.53v-17.5c.01-.85-.68-1.53-1.51-1.53zm-4.01 17.33H33.73a1.14 1.14 0 1 1 0-2.28h23.13a1.14 1.14 0 1 1 0 2.28zm0-5.68H33.73c-.63 0-1.14-.5-1.14-1.14 0-.63.51-1.14 1.14-1.14h23.13c.63 0 1.14.51 1.14 1.14 0 .64-.51 1.14-1.14 1.14zm0-5.67h-7.34c-.63 0-1.14-.51-1.14-1.14 0-.64.51-1.14 1.14-1.14h7.34c.63 0 1.14.5 1.14 1.14 0 .63-.51 1.14-1.14 1.14z"></path></svg>